<svg xmlns="http://www.w3.org/2000/svg" viewBox="0 0 64 64"><defs><style>.cls-1{fill:#fff;}</style></defs><g id="圖層_2" data-name="圖層 2"><g id="圖層_1-2" data-name="圖層 1"><polygon class="cls-1" points="12.36 28.9 12.36 35.07 16.98 31.97 12.36 28.9"/><polygon class="cls-1" points="29.71 23.41 29.71 14.35 14.22 24.63 21.1 29.2 29.71 23.41"/><polygon class="cls-1" points="49.78 24.63 34.29 14.35 34.29 23.41 42.9 29.2 49.78 24.63"/><polygon class="cls-1" points="14.2 39.37 29.71 49.66 29.71 40.41 21.12 34.71 14.2 39.37"/><path class="cls-1" d="M32,0A32,32,0,1,0,64,32,32,32,0,0,0,32,0ZM55.2,41.29,33.27,55.84a2.31,2.31,0,0,1-2.54,0L8.85,41.32a2.19,2.19,0,0,1-.64-.61l-.07-.09a2.27,2.27,0,0,1-.36-1.27V24.66a2.2,2.2,0,0,1,.21-1,2.33,2.33,0,0,1,.59-.77l.18-.14,0,0L30.71,8.19a2.37,2.37,0,0,1,2.58,0L55.2,22.72a2.25,2.25,0,0,1,.88,1.12,2.15,2.15,0,0,1,.14.82V39.38A2.29,2.29,0,0,1,55.2,41.29Z"/><polygon class="cls-1" points="51.64 35.08 51.64 28.9 47.02 31.97 51.64 35.08"/><polygon class="cls-1" points="32 27.39 25.24 31.94 32 36.43 38.76 31.94 32 27.39"/><polygon class="cls-1" points="34.29 40.41 34.29 49.66 49.8 39.37 42.88 34.71 34.29 40.41"/></g></g></svg>